<?xml version="1.0" encoding="utf-8"?>
<!-- Generator: Adobe Illustrator 16.0.0, SVG Export Plug-In . SVG Version: 6.00 Build 0)  -->
<!DOCTYPE svg PUBLIC "-//W3C//DTD SVG 1.1//EN" "http://www.w3.org/Graphics/SVG/1.1/DTD/svg11.dtd">
<svg version="1.1" id="Layer_1" xmlns="http://www.w3.org/2000/svg" xmlns:xlink="http://www.w3.org/1999/xlink" x="0px" y="0px"
	 width="960px" height="560px" viewBox="0 0 960 560" enable-background="new 0 0 960 560" xml:space="preserve">
<path fill="none" stroke="#DDDDDC" stroke-miterlimit="10" d="M411.272,62.618c12.473,0,22.909,10.437,22.909,23.164
	c0,12.728-10.182,23.164-22.909,23.164c-12.473,0-22.909-10.436-22.909-23.164C388.618,73.055,398.8,62.618,411.272,62.618z
	 M547.964,448.255c12.473,0,22.909,10.437,22.909,23.163c0,12.728-10.182,23.164-22.909,23.164
	c-12.473,0-22.909-10.437-22.909-23.164C525.055,458.437,535.491,448.255,547.964,448.255z M479.745,155.272H358.327
	 M600.909,401.928H476.945 M722.582,216.873c-8.654-35.127-25.455-61.6-60.837-61.6h-60.836v-61.6
	c0-32.836-27.745-57.527-60.837-63.127c-20.872-3.563-42.509-5.091-63.381-4.836c-20.873,0-40.473,1.782-58.037,4.836
	c-51.418,9.164-60.836,28-60.836,63.127v61.6h-45.055c-35.382,0-66.182,21.127-75.854,61.6c-11.2,46.328-11.709,75.091,0,123.455
	c8.654,35.891,29.272,61.601,64.654,61.601h57.019v61.6c0,32.836,28.509,52.182,60.836,61.6c38.437,11.2,75.346,13.236,121.418,0
	c30.546-8.909,60.837-26.727,60.837-61.6v-61.6h60.836c35.382,0,48.364-24.691,60.837-61.601
	C735.055,302.146,734.545,265.746,722.582,216.873z M358.327,401.928v-3.055c0-65.673,53.2-118.619,118.618-118.619
	c68.473,0,123.964-55.491,123.964-123.963v-1.019"/>
</svg>
